<?xml version="1.0" encoding="utf-8"?>
<svg id="Слой_1" data-name="Слой 1" viewBox="0 0 68 58.36" height="0px" xmlns="http://www.w3.org/2000/svg">
  <defs>
    <style>
      .cls-1 {
        fill: #000105;
      }

      .cls-2 {
        fill: #d35248;
      }

      .cls-3 {
        fill: #e9aa44;
      }

      .cls-4 {
        fill: #a45780;
      }

      .cls-5 {
        fill: #9d6daa;
      }

      .cls-6 {
        fill: #da7743;
      }

      .cls-7 {
        fill: #844756;
      }

      .cls-8 {
        fill: #756aab;
      }

      .cls-9 {
        fill: #57b6d3;
      }

      .cls-10 {
        fill: #52ae8e;
      }

      .cls-11 {
        fill: #64569b;
      }

      .cls-12 {
        fill: #8dbe5c;
      }
    </style>
  </defs>
  <title>logo</title>
  <path class="cls-2" d="M34,19.21c-.07,0-6.75-4.7-17.87-6l0-13A44.79,44.79,0,0,1,20.78,0C35.4,0,44.44,6.25,44.53,6.31v8.34a37.48,37.48,0,0,0-10.48,4.56h0Z" transform="translate(0.03 0.03)"/>
  <path id="_Контур_" data-name="&lt;Контур&gt;" class="cls-2" d="M44.52,6.33v8.31A36.7,36.7,0,0,0,34,19.19s-6.62-4.69-17.89-6V.2C33.68-1.33,44.52,6.33,44.52,6.33Z" transform="translate(0.03 0.03)"/>
  <path class="cls-3" d="M67.77,58.31a43.36,43.36,0,0,0-18.62-4.57,30.7,30.7,0,0,0-9.72,1.52l0-10.36a29.2,29.2,0,0,1,4.39-.31,43.35,43.35,0,0,1,18.63,4.58l0-27.2a7.09,7.09,0,0,1,.81,0c1.51,0,3.06.07,4.6.2l0,36.2Z" transform="translate(0.03 0.03)"/>
  <path id="_Контур_2" data-name="&lt;Контур&gt;" class="cls-3" d="M67.78,22.16V58.28S53.6,50.51,39.43,55.23V44.9c12.18-1.64,23,4.29,23,4.29V22A52.34,52.34,0,0,1,67.78,22.16Z" transform="translate(0.03 0.03)"/>
  <path class="cls-4" d="M39.42,32.11a32.34,32.34,0,0,0-4.64-.33H34l0-12.61a36.35,36.35,0,0,1,10.49-4.57l0,11a30.93,30.93,0,0,0-5.1,2.69v3.81Z" transform="translate(0.03 0.03)"/>
  <path id="_Контур_3" data-name="&lt;Контур&gt;" class="cls-4" d="M44.52,14.64v11a29.72,29.72,0,0,0-5.09,2.66v3.8A32.69,32.69,0,0,0,34,31.77V19.19A36.7,36.7,0,0,1,44.52,14.64Z" transform="translate(0.03 0.03)"/>
  <path class="cls-5" d="M44.49,14.64A48.54,48.54,0,0,1,57.8,12.82c1.52,0,3.07.07,4.61.2l0,8.93a48.3,48.3,0,0,0-17.9,3.69l0,0Z" transform="translate(0.03 0.03)"/>
  <path id="_Контур_4" data-name="&lt;Контур&gt;" class="cls-5" d="M62.4,13.05V22a47.68,47.68,0,0,0-17.89,3.66v-11A50.06,50.06,0,0,1,62.4,13.05Z" transform="translate(0.03 0.03)"/>
  <path class="cls-6" d="M62.39,49.21a43.32,43.32,0,0,0-18.6-4.57,32.7,32.7,0,0,0-4.36.29l0-12.84a26.61,26.61,0,0,1,5.13,1.17l0-7.63A47.44,47.44,0,0,1,62.4,21.93l0,27.3Z" transform="translate(0.03 0.03)"/>
  <path id="_Контур_5" data-name="&lt;Контур&gt;" class="cls-6" d="M62.4,22V49.18s-10.8-5.92-23-4.29V32.08a29,29,0,0,1,5.09,1.2V25.62A47.68,47.68,0,0,1,62.4,22Z" transform="translate(0.03 0.03)"/>
  <path class="cls-5" d="M34,31.77a6.12,6.12,0,0,1,.77,0,32.59,32.59,0,0,1,4.64.33l0,12.84a31.45,31.45,0,0,0-5.4,1.26h0Z" transform="translate(0.03 0.03)"/>
  <path id="_Контур_6" data-name="&lt;Контур&gt;" class="cls-5" d="M39.43,32.08V44.9A29.15,29.15,0,0,0,34,46.13V31.77A32.69,32.69,0,0,1,39.43,32.08Z" transform="translate(0.03 0.03)"/>
  <path class="cls-7" d="M44.51,33.31a29.08,29.08,0,0,0-5.09-1.2l0-3.83a28.13,28.13,0,0,1,5.11-2.69l0,7.72Z" transform="translate(0.03 0.03)"/>
  <path id="_Контур_7" data-name="&lt;Контур&gt;" class="cls-7" d="M44.52,25.62v7.66a29,29,0,0,0-5.09-1.2v-3.8A29.72,29.72,0,0,1,44.52,25.62Z" transform="translate(0.03 0.03)"/>
  <path class="cls-8" d="M28.33,28.28a39.22,39.22,0,0,0-12.17-5l0-10.13c11.17,1.27,17.87,5.93,17.93,6v12.6a41.93,41.93,0,0,0-5.72.59h0Z" transform="translate(0.03 0.03)"/>
  <path id="_Контур_8" data-name="&lt;Контур&gt;" class="cls-8" d="M34,19.19V31.77a37.82,37.82,0,0,0-5.69.56v-4a38.18,38.18,0,0,0-12.19-5V13.19C27.42,14.5,34,19.19,34,19.19Z" transform="translate(0.03 0.03)"/>
  <path class="cls-9" d="M34,46.16a29.4,29.4,0,0,0-5.69-1.28l0-12.56A35.27,35.27,0,0,1,34,31.74l0,14.43Z" transform="translate(0.03 0.03)"/>
  <path id="_Контур_9" data-name="&lt;Контур&gt;" class="cls-9" d="M34,31.77V46.13a29.38,29.38,0,0,0-5.69-1.28V32.32A37.82,37.82,0,0,1,34,31.77Z" transform="translate(0.03 0.03)"/>
  <path class="cls-9" d="M16.16,23.32A49.54,49.54,0,0,0,5.69,22l0-8.94a44.72,44.72,0,0,1,4.63-.23,51.18,51.18,0,0,1,5.87.34l0,10.17Z" transform="translate(0.03 0.03)"/>
  <path id="_Контур_10" data-name="&lt;Контур&gt;" class="cls-9" d="M16.16,13.19V23.3A49.41,49.41,0,0,0,5.7,22V13.05A51.59,51.59,0,0,1,16.16,13.19Z" transform="translate(0.03 0.03)"/>
  <path class="cls-10" d="M5.67,22a47.79,47.79,0,0,1,10.5,1.3l0,13.06a41,41,0,0,1,12.16-4l0,12.56a40.73,40.73,0,0,0-4.07-.22A43.31,43.31,0,0,0,5.71,49.21l0,0Z" transform="translate(0.03 0.03)"/>
  <path id="_Контур_11" data-name="&lt;Контур&gt;" class="cls-10" d="M28.36,32.32V44.85c-12-1.49-22.66,4.33-22.66,4.33V22A49.41,49.41,0,0,1,16.16,23.3v13A43,43,0,0,1,28.36,32.32Z" transform="translate(0.03 0.03)"/>
  <path class="cls-11" d="M16.13,23.3a38.23,38.23,0,0,1,12.24,5v4.06a44,44,0,0,0-12.21,4l0,0Z" transform="translate(0.03 0.03)"/>
  <path id="_Контур_12" data-name="&lt;Контур&gt;" class="cls-11" d="M28.36,28.28v4a43,43,0,0,0-12.19,4v-13A38.18,38.18,0,0,1,28.36,28.28Z" transform="translate(0.03 0.03)"/>
  <path class="cls-12" d="M0,22.16a44.47,44.47,0,0,1,4.61-.23H5.7l0,27.25a42.28,42.28,0,0,1,18.59-4.6,32.93,32.93,0,0,1,4,.25l0,10.4a31.9,31.9,0,0,0-9.75-1.49A43.35,43.35,0,0,0,0,58.31l0,0Z" transform="translate(0.03 0.03)"/>
  <path id="_Контур_13" data-name="&lt;Контур&gt;" class="cls-12" d="M28.36,44.85V55.23C14.18,50.51,0,58.28,0,58.28V22.16A52.21,52.21,0,0,1,5.7,22V49.18S16.31,43.36,28.36,44.85Z" transform="translate(0.03 0.03)"/>
</svg>